<?xml version="1.0" encoding="utf-8"?><!DOCTYPE svg  PUBLIC '-//W3C//DTD SVG 1.1//EN'  'http://www.w3.org/Graphics/SVG/1.1/DTD/svg11.dtd'><svg viewBox="0 0 652 652" xmlns="http://www.w3.org/2000/svg" xmlns:xlink="http://www.w3.org/1999/xlink"><svg viewBox="0 0 64 64" id="build" xmlns="http://www.w3.org/2000/svg"><path d="M59 54a2.95 2.95 0 00-1.285.301L44.161 40.747c.27-.374.521-.761.756-1.16l10.07 2.698a2.994 2.994 0 002.967 2.669c1.654 0 3-1.346 3-3s-1.346-3-3-3a2.995 2.995 0 00-2.518 1.381l-9.592-2.57c.241-.576.434-1.174.602-1.783l5.896-1.58a2.989 2.989 0 002.611 1.552c1.654 0 3-1.346 3-3s-1.346-3-3-3a3 3 0 00-2.946 2.467l-5.126 1.373A14.74 14.74 0 0047 32c0-1.387-.204-2.724-.558-4H51c1.654 0 3-1.346 3-3v-4.051c5.046-.503 9-4.773 9-9.949 0-5.514-4.486-10-10-10S43 5.486 43 11c0 5.177 3.954 9.446 9 9.949V25c0 .551-.448 1-1 1h-5.261c-2.32-5.291-7.601-9-13.739-9-1.151 0-2.267.142-3.344.389l.923-3.443A3 3 0 0032.047 11c0-1.654-1.346-3-3-3s-3 1.346-3 3c0 1.127.631 2.098 1.552 2.611l-1.202 4.486c-.832.337-1.623.749-2.373 1.223l-2.359-8.801A2.998 2.998 0 0023.046 8c0-1.654-1.346-3-3-3s-3 1.346-3 3a2.993 2.993 0 002.668 2.966l2.578 9.62a15.07 15.07 0 00-1.151 1.095L7.699 8.24C7.887 7.849 8 7.416 8 6.955c0-1.654-1.346-3-3-3s-3 1.346-3 3 1.346 3 3 3a2.95 2.95 0 001.285-.301l13.573 13.573c-.268.37-.518.752-.752 1.147L9.012 21.669A2.993 2.993 0 006.046 19c-1.654 0-3 1.346-3 3s1.346 3 3 3a2.993 2.993 0 002.518-1.381l9.607 2.574a14.846 14.846 0 00-.605 1.776l-5.909 1.583A2.99 2.99 0 009.046 28c-1.654 0-3 1.346-3 3s1.346 3 3 3a3 3 0 002.946-2.467l5.133-1.375A15.126 15.126 0 0017 32c0 1.387.204 2.724.558 4H13c-1.654 0-3 1.346-3 3v4.051c-5.046.503-9 4.772-9 9.949 0 5.514 4.486 10 10 10s10-4.486 10-10c0-5.177-3.954-9.446-9-9.949V39c0-.551.448-1 1-1h5.261c2.32 5.291 7.601 9 13.739 9 1.146 0 2.258-.141 3.331-.386l-.91 3.394a3 3 0 00-2.467 2.946c0 1.654 1.346 3 3 3s3-1.346 3-3a2.989 2.989 0 00-1.552-2.611l1.189-4.435c.84-.339 1.64-.755 2.397-1.234l2.348 8.762a2.994 2.994 0 00-1.382 2.518c0 1.654 1.346 3 3 3s3-1.346 3-3a2.993 2.993 0 00-2.668-2.966l-2.568-9.583c.408-.348.794-.721 1.163-1.11l13.42 13.42A2.95 2.95 0 0056 57c0 1.654 1.346 3 3 3s3-1.346 3-3-1.346-3-3-3zm-1.046-13.045a1.001 1.001 0 11-1 1c0-.551.448-1 1-1zm-3-9a1.001 1.001 0 11-1 1c0-.551.448-1 1-1zM50 10c0-1.654 1.346-3 3-3s3 1.346 3 3-1.346 3-3 3-3-1.346-3-3zm3 9a7.943 7.943 0 01-4.792-1.61C49.333 15.899 51.103 15 53 15s3.667.899 4.792 2.391A7.949 7.949 0 0153 19zm-8-8c0-4.411 3.589-8 8-8s8 3.589 8 8a7.965 7.965 0 01-1.768 5.005 7.996 7.996 0 00-2.931-2.278C57.335 12.809 58 11.487 58 10c0-2.757-2.243-5-5-5s-5 2.243-5 5c0 1.487.665 2.809 1.699 3.726a8.018 8.018 0 00-2.931 2.278A7.954 7.954 0 0145 11zm-15.954-1a1.001 1.001 0 11-1 1c0-.551.448-1 1-1zm-10-2a1.001 1.001 0 111 1c-.552 0-1-.449-1-1zM5 7.955a1.001 1.001 0 010-2 1.001 1.001 0 010 2zM6.046 23a1.001 1.001 0 010-2 1.001 1.001 0 010 2zm3 9a1.001 1.001 0 010-2 1.001 1.001 0 010 2zM6.208 59.39C7.333 57.899 9.103 57 11 57s3.667.899 4.792 2.391C14.455 60.396 12.799 61 11 61s-3.455-.604-4.792-1.61zM8 52c0-1.654 1.346-3 3-3s3 1.346 3 3-1.346 3-3 3-3-1.346-3-3zm11 1a7.965 7.965 0 01-1.768 5.005 7.996 7.996 0 00-2.931-2.278C15.335 54.809 16 53.487 16 52c0-2.757-2.243-5-5-5s-5 2.243-5 5c0 1.487.665 2.809 1.699 3.726a8.018 8.018 0 00-2.931 2.278A7.954 7.954 0 013 53c0-4.411 3.589-8 8-8s8 3.589 8 8zm15.954.955a1.001 1.001 0 010-2 1.001 1.001 0 010 2zm10 2a1.001 1.001 0 01-2 0 1 1 0 012 0zM27 28c0-2.757 2.243-5 5-5s5 2.243 5 5-2.243 5-5 5-5-2.243-5-5zm7.713 7.43L32 43.028l-2.713-7.598c.862-.275 1.772-.43 2.713-.43s1.851.155 2.713.43zm-7.259.814l3.096 8.67a12.941 12.941 0 01-7.233-3.266 9.006 9.006 0 014.137-5.404zm9.092 0a9.002 9.002 0 014.137 5.404 12.941 12.941 0 01-7.233 3.266zM32 19c7.168 0 13 5.832 13 13 0 3.009-1.037 5.775-2.76 7.981a11.055 11.055 0 00-6.266-6.225A6.995 6.995 0 0039 28c0-3.86-3.141-7-7-7s-7 3.14-7 7c0 2.384 1.2 4.491 3.026 5.756a11.055 11.055 0 00-6.266 6.225A12.923 12.923 0 0119 32c0-7.168 5.832-13 13-13zm27 39a1.001 1.001 0 010-2 1.001 1.001 0 010 2z"/></svg><svg viewBox="0 0 24 24" id="check" xmlns="http://www.w3.org/2000/svg"><path clip-rule="evenodd" d="M21.652 3.211a.747.747 0 00-1.061 0L9.41 14.34a.744.744 0 01-1.062 0L3.449 9.351a.743.743 0 00-1.062 0L.222 11.297a.751.751 0 00.001 1.07l4.94 5.184c.292.296.771.776 1.062 1.07l2.124 2.141a.751.751 0 001.062 0l14.366-14.34a.762.762 0 000-1.071l-2.125-2.14z" fill-rule="evenodd"/></svg><svg viewBox="0 0 511.992 511.992" id="clock" xmlns="http://www.w3.org/2000/svg"><path d="M511.005 279.646c-4.597-46.238-25.254-89.829-58.168-122.744-28.128-28.127-62.556-46.202-98.782-54.239V77.255c14.796-3.681 25.794-17.074 25.794-32.993 0-18.748-15.252-34-34-34h-72c-18.748 0-34 15.252-34 34 0 15.918 10.998 29.311 25.793 32.993v25.479c-36.115 8.071-70.429 26.121-98.477 54.169a202.966 202.966 0 00-16.979 19.269 9.99 9.99 0 00-.758-.038H78.167c-5.522 0-10 4.477-10 10s4.478 10 10 10h58.412a200.467 200.467 0 00-17.744 38.436H10c-5.522 0-10 4.477-10 10s4.478 10 10 10h103.184a203.324 203.324 0 00-4.963 38.437H64c-5.522 0-10 4.477-10 10s4.478 10 10 10h44.54a203.025 203.025 0 006.244 38.437H50c-5.522 0-10 4.477-10 10s4.478 10 10 10h71.166c9.81 25.951 25.141 50.274 45.999 71.132 32.946 32.946 76.582 53.608 122.868 58.181 6.606.652 13.217.975 19.819.975 39.022 0 77.548-11.293 110.238-32.581 4.628-3.014 5.937-9.209 2.923-13.837s-9.209-5.937-13.837-2.923c-71.557 46.597-167.39 36.522-227.869-23.957-70.962-70.962-70.962-186.425 0-257.388 70.961-70.961 186.424-70.961 257.387 0 60.399 60.4 70.529 156.151 24.086 227.673-3.008 4.632-1.691 10.826 2.94 13.833 4.634 3.008 10.826 1.691 13.833-2.941 24.814-38.215 35.984-84.37 31.452-129.965zM259.849 44.263c0-7.72 6.28-14 14-14h72c7.72 0 14 6.28 14 14s-6.28 14-14 14h-72c-7.72 0-14-6.281-14-14zm25.793 55.033V78.263h48.413V99.26a203.755 203.755 0 00-48.413.036z"/><path d="M445.77 425.5c-2.64 0-5.21 1.07-7.069 2.93a10.034 10.034 0 00-2.931 7.07c0 2.63 1.061 5.21 2.931 7.07a10.013 10.013 0 007.069 2.93c2.63 0 5.2-1.06 7.07-2.93 1.86-1.86 2.93-4.44 2.93-7.07s-1.069-5.21-2.93-7.07a10.095 10.095 0 00-7.07-2.93zM310.001 144.609c-85.538 0-155.129 69.59-155.129 155.129s69.591 155.129 155.129 155.129 155.129-69.59 155.129-155.129-69.591-155.129-155.129-155.129zm0 290.258c-74.511 0-135.129-60.619-135.129-135.129s60.618-135.129 135.129-135.129S445.13 225.228 445.13 299.738s-60.618 135.129-135.129 135.129z"/><path d="M373.257 222.34l-49.53 49.529a30.885 30.885 0 00-13.726-3.205 30.882 30.882 0 00-13.726 3.205l-22.167-22.167c-3.906-3.905-10.236-3.905-14.143 0-3.905 3.905-3.905 10.237 0 14.142l22.167 22.167a30.871 30.871 0 00-3.205 13.726c0 17.134 13.939 31.074 31.074 31.074s31.074-13.94 31.074-31.074c0-4.925-1.157-9.584-3.205-13.726l48.076-48.076 1.453-1.453c3.905-3.905 3.905-10.237 0-14.142s-10.235-3.905-14.142 0zm-63.256 88.472c-6.106 0-11.074-4.968-11.074-11.074s4.968-11.074 11.074-11.074 11.074 4.968 11.074 11.074-4.968 11.074-11.074 11.074zM416.92 289.86h-9.265c-5.522 0-10 4.477-10 10s4.478 10 10 10h9.265c5.522 0 10-4.477 10-10s-4.478-10-10-10zM212.346 289.616h-9.264c-5.522 0-10 4.477-10 10s4.478 10 10 10h9.264c5.522 0 10-4.477 10-10s-4.478-10-10-10zM310.123 212.083c5.522 0 10-4.477 10-10v-9.264c0-5.523-4.478-10-10-10s-10 4.477-10 10v9.264c0 5.523 4.478 10 10 10zM309.879 387.393c-5.522 0-10 4.477-10 10v9.264c0 5.523 4.478 10 10 10s10-4.477 10-10v-9.264c0-5.523-4.478-10-10-10zM10 351.44c-2.63 0-5.21 1.07-7.07 2.93A10.076 10.076 0 000 361.44c0 2.64 1.069 5.21 2.93 7.07s4.44 2.93 7.07 2.93 5.21-1.07 7.069-2.93c1.86-1.86 2.931-4.44 2.931-7.07s-1.07-5.21-2.931-7.07A10.072 10.072 0 0010 351.44z"/></svg><svg viewBox="0 0 652 652" id="david" xmlns="http://www.w3.org/2000/svg"><path d="M44.2 308.6c11.3 0 19.8 6.3 19.6 13-.2 11.3-10.5 14.1-23.4 14.1-3.7 0-5.9 0-9.5-.7v-26.4h13.3zm-3 29.3c17.1 0 31-7.3 30.2-16.6-.7-8.8-11.5-14.9-25.4-14.9H20.9c.2 0 1.7.5 2.4 1.2.5.5.7.8.7 1.4v26.4c0 .5-.3.8-.7 1.2-.7.7-2.7 1.2-2.9 1.2l20.8.1zM106.1 326.1H89l8.5-12.5c-.1-.1 8.6 12.5 8.6 12.5zm-21.5 11.8c-.2 0-2-.3-2.4-1-.3-.5 0-1 .3-1.7l4.9-7.1h19.8l4.4 6.4c.5.8 1.2 1.4.7 2.2-.5.7-2.5 1.2-2.5 1.2h14.7c-.2 0-2.4-.5-3.4-1.2-.8-.5-1.2-1-1.7-1.7l-20.3-29.5L78.6 335c-.5.7-.8 1.2-1.9 1.9-.7.3-2.2 1-2.2 1h10.1zM125 309.3c-.5-.7-.8-1.2-1.7-1.7-.8-.5-2.5-1.2-2.7-1.2h13.6s-1.5.5-1.9 1c-.5.5-.5 1-.2 1.7l14.4 20.7 13.9-21.3c.3-.3.3-.8.2-1.2-.3-.5-1.7-.8-1.9-.8h9.7c-.8.2-1.4.3-1.9.8-.8.5-1.4 1-1.9 1.7L145 338l-20-28.7zM189.1 335.5c0 .5.3 1 1 1.4.5.5 1.9.8 1.9.8h-12.4c.2 0 1.5-.5 2-1.2.3-.3.7-.7.7-1.2v-26.6c0-.5-.2-.8-.7-1.2-.5-.5-1.9-1-2-1H192s-1.4.5-1.9.8c-.5.5-1 .8-1 1.4v26.8zM231.3 308.6c11.3 0 19.8 6.3 19.6 13-.2 11.3-10.5 14.1-23.4 14.1-3.7 0-5.9 0-9.5-.7v-26.4h13.3zm-3.1 29.3c17.1 0 31-7.3 30.2-16.6-.7-8.8-11.5-14.9-25.4-14.9h-25.1c.2 0 1.7.5 2.4 1.2.5.5.7.8.7 1.4v26.4c0 .5-.3.8-.7 1.2-.7.7-2.7 1.2-2.9 1.2l20.8.1zM316.1 335.4c0 .7.2 1.4.7 1.7.7.5 2.7 1 2.7 1h-14.2c.2 0 1.9-.5 2.5-1 .7-.5 1-.8 1-1.5v-13.7l-13-12.4c-.7-.7-1.4-1.2-2.2-1.7-1.2-.7-3.4-1.4-3.6-1.4h15.2c-.2 0-2.2.5-2.5 1.2s.3 1.4 1 2l10.8 10.3 8.6-9.8c.7-.8 1.5-1.9 1.5-2.4-.2-.7-1-1-2-1.2h10.3c-1.4.2-2 .5-3 1.2-.8.5-1.2 1-1.9 1.7L316.3 322v13.4h-.2zM381.5 308.8c0-.7-.2-1-.7-1.5-.5-.5-1-.7-2-.8h9.7c-.8.2-1.2.3-1.9.7-.3.2-1 .7-1 1.9v17.8c0 1 .5 10.8-18.6 11-14.9.2-19.6-4.9-19.6-11.2v-18c0-.5-.2-.8-.5-1.2-.5-.5-1.9-1-2-1h12.4s-1.4.5-1.9.8c-.5.5-.7.8-.7 1.4V328c0 4.2 4.1 8 13.2 7.8 10.2-.2 13.7-3.7 13.7-8.1l-.1-18.9zM417.6 321c-.7.2-6.6 0-6.8 0v-13h4.6c9.6.1 21.5 8.4 2.2 13zm-6.8 2h4.4c1.2 0 2.5.2 3.9.7.8.3 1.4.7 1.9 1.2l12 11.3c.3.5.8.7 1.5 1 .8.3 1.5.7 2.5.7h9.1c-1.5-.3-2.4-.5-3.7-1-1.7-.5-6.4-4.6-9.1-7.6-4.4-4.9-9.7-7.3-9.8-7.5.5 0 11-1.7 10.7-7.8-.2-5.6-9.5-7.8-15.8-7.8h-16.9c.2 0 1.5.7 2 1.2.3.3.7.7.7 1.2v26.8c0 .5-.3.8-.7 1.2-.5.5-1.9 1.2-2 1.2h12.4s-1.4-.5-1.9-1-1-.8-1-1.5V323h-.2zM498.2 311.8l-18.3 26.9-19-26.9v24.4c0 .3.3.7.7 1 .3.3 1 .7 1.7.8H455c.7-.2 1.2-.3 1.7-.8.3-.3.7-.5.7-1v-27.8c0-.5-.2-.7-.5-1.2-.3-.3-.8-.5-1.5-.7h9.8l16.4 24.6 16.1-24.6h9.7s-1.4.5-1.9.8c-.5.5-.5.8-.5 1.4v26.9c0 .5.3 1 1 1.4.5.3 2 .7 2 .7h-12.4c.2 0 1.5-.3 2-.8.3-.3.5-.7.5-1.2l.1-23.9zM547.4 326.1h-17.1l8.5-12.5 8.6 12.5zM526 337.9c-.2 0-2-.3-2.4-1-.3-.5 0-1 .3-1.7l4.9-7.1h20l4.4 6.4c.5.8 1.2 1.4.7 2.2-.5.7-2.5 1.2-2.5 1.2h14.7c-.2 0-2.4-.5-3.4-1.2-.8-.5-1.2-1-1.7-1.7l-20.3-29.5-20.8 29.5c-.5.7-.8 1.2-1.9 1.9-.7.5-2.2 1-2.2 1H526zM579.2 311.3v24.9c0 .3.3.7.7 1 .5.3 1.2.7 2 .8h-8.6c.8 0 1.2-.3 1.9-.7.3-.2.5-.7.5-1v-27.1c0-.8-.7-1-1.4-1.5-.8-.5-2.7-1-2.9-1h10.7l31.5 23v-21.3c0-.3-.3-.7-.7-1-.5-.3-1-.7-1.7-.8h9.1c-.7.2-1.2.3-1.7.8-.5.3-1 .7-1 1v30.5l-38.4-27.6z"/></svg><svg viewBox="0 0 512 512" id="envelope" xmlns="http://www.w3.org/2000/svg"><path d="M10.688 95.156C80.958 154.667 204.26 259.365 240.5 292.01c4.865 4.406 10.083 6.646 15.5 6.646 5.406 0 10.615-2.219 15.469-6.604 36.271-32.677 159.573-137.385 229.844-196.896 4.375-3.698 5.042-10.198 1.5-14.719C494.625 69.99 482.417 64 469.333 64H42.667c-13.083 0-25.292 5.99-33.479 16.438-3.542 4.52-2.875 11.02 1.5 14.718zM505.813 127.406a10.618 10.618 0 00-11.375 1.542c-46.021 39.01-106.656 90.552-152.385 129.885a10.654 10.654 0 00-3.708 8.271 10.644 10.644 0 004 8.135c42.49 34.031 106.521 80.844 152.76 114.115a10.626 10.626 0 006.229 2.01c1.667 0 3.333-.385 4.865-1.177a10.66 10.66 0 005.802-9.49V137.083a10.663 10.663 0 00-6.188-9.677zM16.896 389.354c46.25-33.271 110.292-80.083 152.771-114.115a10.646 10.646 0 004-8.135 10.654 10.654 0 00-3.708-8.271C124.229 219.5 63.583 167.958 17.563 128.948a10.674 10.674 0 00-11.375-1.542A10.66 10.66 0 000 137.083v243.615c0 4 2.24 7.667 5.802 9.49a10.566 10.566 0 004.865 1.177 10.62 10.62 0 006.229-2.011z"/><path d="M498.927 418.375c-44.656-31.948-126.917-91.51-176.021-131.365-4-3.26-9.792-3.156-13.729.24-9.635 8.406-17.698 15.49-23.417 20.635-17.563 15.854-41.938 15.854-59.542-.021-5.698-5.135-13.76-12.24-23.396-20.615-3.906-3.417-9.708-3.521-13.719-.24-48.938 39.719-131.292 99.354-176.021 131.365a10.703 10.703 0 00-4.406 7.604 10.67 10.67 0 002.802 8.333C19.552 443.01 30.927 448 42.667 448h426.667c11.74 0 23.104-4.99 31.198-13.688a10.676 10.676 0 002.802-8.323 10.73 10.73 0 00-4.407-7.614z"/></svg><svg viewBox="0 0 439.176 439.176" id="eye" xmlns="http://www.w3.org/2000/svg"><path d="M436.583 210.464c-1.03-1.656-25.684-40.974-65.189-79.166-34.989-33.826-89.729-74.148-151.806-74.148-62.077 0-116.816 40.322-151.806 74.148-39.609 38.293-64.156 77.512-65.181 79.161-3.466 5.545-3.467 12.707-.005 18.248 1.028 1.654 25.603 40.9 65.187 79.17 34.989 33.826 89.729 74.148 151.806 74.148 120.236 0 213.097-147.055 216.993-153.312 3.459-5.545 3.46-12.706.001-18.249zm-36.609 10.859c-11.508 16.269-35.521 47.647-67.053 75.038-39.101 33.967-77.231 51.189-113.333 51.189-36.103 0-74.232-17.223-113.332-51.188-31.527-27.388-55.545-58.771-67.056-75.038l-1.226-1.732 1.226-1.732c11.506-16.268 35.519-47.647 67.056-75.046 39.101-33.967 77.23-51.189 113.332-51.189 36.101 0 74.232 17.223 113.333 51.189 31.542 27.403 55.55 58.78 67.053 75.046l1.227 1.732-1.227 1.731z"/><path d="M219.588 106.224c-62.509 0-113.364 50.856-113.364 113.367 0 62.509 50.855 113.364 113.364 113.364 62.508 0 113.364-50.854 113.364-113.364 0-62.51-50.856-113.367-113.364-113.367zm0 192.253c-43.5 0-78.891-35.387-78.891-78.885 0-43.502 35.391-78.893 78.891-78.893s78.889 35.391 78.889 78.893c0 43.498-35.39 78.885-78.889 78.885z"/><path d="M219.588 182.108c-20.664 0-37.475 16.814-37.475 37.482 0 20.662 16.811 37.473 37.475 37.473 20.665 0 37.476-16.812 37.476-37.473 0-20.667-16.812-37.482-37.476-37.482z"/></svg><svg viewBox="0 0 96.124 96.123" id="facebook" xmlns="http://www.w3.org/2000/svg"><path d="M72.089.02L59.624 0C45.62 0 36.57 9.285 36.57 23.656v10.907H24.037a1.96 1.96 0 00-1.96 1.961v15.803a1.96 1.96 0 001.96 1.96H36.57v39.876a1.96 1.96 0 001.96 1.96h16.352a1.96 1.96 0 001.96-1.96V54.287h14.654a1.96 1.96 0 001.96-1.96l.006-15.803a1.963 1.963 0 00-1.961-1.961H56.842v-9.246c0-4.444 1.059-6.7 6.848-6.7l8.397-.003a1.96 1.96 0 001.959-1.96V1.98A1.96 1.96 0 0072.089.02z"/></svg><svg viewBox="0 0 511 511.9" id="instagram" xmlns="http://www.w3.org/2000/svg"><path d="M510.95 150.5c-1.2-27.2-5.598-45.898-11.9-62.102-6.5-17.199-16.5-32.597-29.6-45.398-12.802-13-28.302-23.102-45.302-29.5-16.296-6.3-34.898-10.7-62.097-11.898C334.648.3 325.949 0 256.449 0s-78.199.3-105.5 1.5c-27.199 1.2-45.898 5.602-62.097 11.898-17.204 6.5-32.602 16.5-45.403 29.602-13 12.8-23.097 28.3-29.5 45.3-6.3 16.302-10.699 34.9-11.898 62.098C.75 177.801.449 186.5.449 256s.301 78.2 1.5 105.5c1.2 27.2 5.602 45.898 11.903 62.102 6.5 17.199 16.597 32.597 29.597 45.398 12.801 13 28.301 23.102 45.301 29.5 16.3 6.3 34.898 10.7 62.102 11.898 27.296 1.204 36 1.5 105.5 1.5s78.199-.296 105.5-1.5c27.199-1.199 45.898-5.597 62.097-11.898a130.934 130.934 0 0074.903-74.898c6.296-16.301 10.699-34.903 11.898-62.102 1.2-27.3 1.5-36 1.5-105.5s-.102-78.2-1.3-105.5zm-46.098 209c-1.102 25-5.301 38.5-8.801 47.5-8.602 22.3-26.301 40-48.602 48.602-9 3.5-22.597 7.699-47.5 8.796-27 1.204-35.097 1.5-103.398 1.5s-76.5-.296-103.403-1.5c-25-1.097-38.5-5.296-47.5-8.796C94.551 451.5 84.45 445 76.25 436.5c-8.5-8.3-15-18.3-19.102-29.398-3.5-9-7.699-22.602-8.796-47.5-1.204-27-1.5-35.102-1.5-103.403s.296-76.5 1.5-103.398c1.097-25 5.296-38.5 8.796-47.5C61.25 94.199 67.75 84.1 76.352 75.898c8.296-8.5 18.296-15 29.398-19.097 9-3.5 22.602-7.7 47.5-8.801 27-1.2 35.102-1.5 103.398-1.5 68.403 0 76.5.3 103.403 1.5 25 1.102 38.5 5.3 47.5 8.8 11.097 4.098 21.199 10.598 29.398 19.098 8.5 8.301 15 18.301 19.102 29.403 3.5 9 7.699 22.597 8.8 47.5 1.2 27 1.5 35.097 1.5 103.398s-.3 76.301-1.5 103.301zm0 0"/><path d="M256.45 124.5c-72.598 0-131.5 58.898-131.5 131.5s58.902 131.5 131.5 131.5c72.6 0 131.5-58.898 131.5-131.5s-58.9-131.5-131.5-131.5zm0 216.8c-47.098 0-85.302-38.198-85.302-85.3s38.204-85.3 85.301-85.3c47.102 0 85.301 38.198 85.301 85.3s-38.2 85.3-85.3 85.3zm0 0M423.852 119.3c0 16.954-13.747 30.7-30.704 30.7-16.953 0-30.699-13.746-30.699-30.7 0-16.956 13.746-30.698 30.7-30.698 16.956 0 30.703 13.742 30.703 30.699zm0 0"/></svg><svg viewBox="0 0 512 512" id="learning" xmlns="http://www.w3.org/2000/svg"><g data-name="E learning"><path d="M425.735 152.19A340.873 340.873 0 00368 144.427V48a40.045 40.045 0 00-40-40H120a40.045 40.045 0 00-40 40v416a40.045 40.045 0 0040 40h208a40.045 40.045 0 0040-40v-95.553a324.81 324.81 0 0154.265 7.363A8 8 0 00432 368V160a8 8 0 00-6.265-7.81zM267.056 24l-8 16h-70.112l-8-16zM352 464a24.027 24.027 0 01-24 24H120a24.027 24.027 0 01-24-24V48a24.027 24.027 0 0124-24h43.056l13.789 27.578A8 8 0 00184 56h80a8 8 0 007.155-4.422L284.944 24H328a24.027 24.027 0 0124 24v96.036a339.149 339.149 0 00-72 7.781 337.406 337.406 0 00-145.735.373A8 8 0 00128 160v208a8 8 0 009.735 7.81 321.532 321.532 0 01140.53 0c.113.025.227.036.34.056.166.029.331.063.5.082.133.015.265.017.4.025.16.01.32.026.481.026H280c.256 0 .512-.016.766-.04.079-.008.158-.02.238-.03q.3-.038.589-.1c.048-.01.095-.013.142-.023A323.326 323.326 0 01352 368.039zM208 352.036a338.3 338.3 0 00-64 6.136V166.48a321.147 321.147 0 01128 0v191.692a338.3 338.3 0 00-64-6.136zm208 6.136a336.836 336.836 0 00-128 0V166.48a321.147 321.147 0 01128 0z"/><path d="M256 184h-96a8 8 0 00-8 8v56a8 8 0 008 8h96a8 8 0 008-8v-56a8 8 0 00-8-8zm-8 56h-80v-40h80zM256 264h-96a8 8 0 000 16h96a8 8 0 000-16zM152 304h24a8 8 0 000-16h-24a8 8 0 000 16zM216 288h-8a8 8 0 000 16h8a8 8 0 000-16zM400 272h-96a8 8 0 000 16h96a8 8 0 000-16zM400 248h-96a8 8 0 000 16h96a8 8 0 000-16zM328 296h-24a8 8 0 000 16h24a8 8 0 000-16zM360 296h-8a8 8 0 000 16h8a8 8 0 000-16zM296 192v40a8 8 0 008 8h96a8 8 0 008-8v-40a8 8 0 00-8-8h-96a8 8 0 00-8 8zm16 8h80v24h-80zM176 456h-56a8 8 0 000 16h56a8 8 0 000-16zM208 456h-8a8 8 0 000 16h8a8 8 0 000-16z"/></g></svg><svg viewBox="0 0 24 24" id="linkedin" xmlns="http://www.w3.org/2000/svg"><path d="M23.994 24v-.001H24v-8.802c0-4.306-.927-7.623-5.961-7.623-2.42 0-4.044 1.328-4.707 2.587h-.07V7.976H8.489v16.023h4.97v-7.934c0-2.089.396-4.109 2.983-4.109 2.549 0 2.587 2.384 2.587 4.243V24zM.396 7.977h4.976V24H.396zM2.882 0C1.291 0 0 1.291 0 2.882s1.291 2.909 2.882 2.909 2.882-1.318 2.882-2.909A2.884 2.884 0 002.882 0z"/></svg><svg viewBox="0 0 492.004 492.004" id="next" xmlns="http://www.w3.org/2000/svg"><path d="M382.678 226.804L163.73 7.86C158.666 2.792 151.906 0 144.698 0s-13.968 2.792-19.032 7.86l-16.124 16.12c-10.492 10.504-10.492 27.576 0 38.064L293.398 245.9l-184.06 184.06c-5.064 5.068-7.86 11.824-7.86 19.028 0 7.212 2.796 13.968 7.86 19.04l16.124 16.116c5.068 5.068 11.824 7.86 19.032 7.86s13.968-2.792 19.032-7.86L382.678 265c5.076-5.084 7.864-11.872 7.848-19.088.016-7.244-2.772-14.028-7.848-19.108z"/></svg><svg viewBox="0 0 512 512" id="pin" xmlns="http://www.w3.org/2000/svg"><path d="M256 0C161.896 0 85.333 76.563 85.333 170.667c0 28.25 7.063 56.26 20.49 81.104L246.667 506.5c1.875 3.396 5.448 5.5 9.333 5.5s7.458-2.104 9.333-5.5l140.896-254.813c13.375-24.76 20.438-52.771 20.438-81.021C426.667 76.563 350.104 0 256 0zm0 256c-47.052 0-85.333-38.281-85.333-85.333S208.948 85.334 256 85.334s85.333 38.281 85.333 85.333S303.052 256 256 256z"/></svg><svg viewBox="0 0 512 512" id="play" xmlns="http://www.w3.org/2000/svg"><path d="M256 0C114.833 0 0 114.844 0 256s114.833 256 256 256 256-114.844 256-256S397.167 0 256 0zm0 490.667C126.604 490.667 21.333 385.396 21.333 256S126.604 21.333 256 21.333 490.667 126.604 490.667 256 385.396 490.667 256 490.667z"/><path d="M357.771 247.031l-149.333-96c-3.271-2.135-7.5-2.25-10.875-.396A10.653 10.653 0 00192 160v192c0 3.906 2.125 7.49 5.563 9.365a10.68 10.68 0 005.104 1.302c2 0 4.021-.563 5.771-1.698l149.333-96c3.042-1.958 4.896-5.344 4.896-8.969s-1.854-7.01-4.896-8.969zm-144.438 85.427V179.542L332.271 256l-118.938 76.458z"/></svg><svg viewBox="0 0 64 64" id="smartphone" xmlns="http://www.w3.org/2000/svg"><path d="M57 2H13a5 5 0 00-5 5v11.08A7 7 0 002 25v11.53a2.971 2.971 0 00.32 1.34l1.58 3.16a.947.947 0 01.1.44V45a1 1 0 00-1 1v6a1 1 0 001 1v8a1 1 0 001 1h10a1 1 0 001-1v-8a1 1 0 001-1v-6a.985.985 0 00-.75-.95 7.118 7.118 0 01.48-1.29l1.54-3.05c.11-.23.21-.47.3-.71H37v10a.967.967 0 00.17.55L41 56.3V61a1 1 0 001 1h13a1 1 0 001-1v-4.76l2.89-5.79A1 1 0 0059 50V40a2.713 2.713 0 00-.04-.41A5 5 0 0062 35V7a5 5 0 00-5-5zM10 7a3.009 3.009 0 013-3h5v20.77a2.885 2.885 0 00-1.36.39 2.978 2.978 0 00-1.4 1.82l-1.16 4.3a.982.982 0 01-.97.73.961.961 0 01-.82-.47L10 27.72zm4 53H6v-7h8zm1-9H5v-4h10zm4.1-22.99l-1.87 6.98a7.343 7.343 0 00-.23 1.8v.79a5.177 5.177 0 01-.52 2.24l-1.53 3.04A8.916 8.916 0 0014.2 45H6v-3.53a2.971 2.971 0 00-.32-1.34L4.1 36.97a.947.947 0 01-.1-.44V25a5.009 5.009 0 014-4.9V28a1 1 0 00.14.51l2.43 4.05a2.99 2.99 0 005.45-.76l1.16-4.31a.955.955 0 01.46-.6.969.969 0 01.76-.1.985.985 0 01.74.96.783.783 0 01-.04.26zM57 49.76l-2.89 5.79A1 1 0 0054 56v4H43v-4a.967.967 0 00-.17-.55L39 49.7V40a1 1 0 012 0v6h2V29a1 1 0 012 0v13h2v-4a1 1 0 012 0v4h2v-3a1 1 0 012 0v3h2v-2a1 1 0 012 0zM32.27 25.58a8.6 8.6 0 01-.98-2.36 1.008 1.008 0 00-.83-.74L28 22.13v-2.26l2.46-.35a1.008 1.008 0 00.83-.74 8.6 8.6 0 01.98-2.36 1 1 0 00-.06-1.11l-1.5-2 1.6-1.6 2 1.5a.981.981 0 001.11.06 8.6 8.6 0 012.36-.98 1.008 1.008 0 00.74-.83L38.87 9h2.26l.35 2.46a1.008 1.008 0 00.74.83 8.6 8.6 0 012.36.98 1 1 0 001.11-.06l2-1.5 1.6 1.6-1.5 2a1 1 0 00-.06 1.11 8.6 8.6 0 01.98 2.36 1.008 1.008 0 00.83.74l2.46.35v2.26l-2.46.35a1.008 1.008 0 00-.83.74 8.6 8.6 0 01-.98 2.36 1 1 0 00.06 1.11l1.5 2-1.6 1.6-.69-.52V29a3.009 3.009 0 00-3-3 2.946 2.946 0 00-.99.18 5.76 5.76 0 10-.73.37A2.984 2.984 0 0041 29v4h-2.13l-.35-2.46a1.008 1.008 0 00-.74-.83 8.6 8.6 0 01-2.36-.98.981.981 0 00-1.11.06l-2 1.5-1.6-1.6 1.5-2a1 1 0 00.06-1.11zM40 25a4 4 0 114-4 4 4 0 01-4 4zm20 10a2.981 2.981 0 01-1.96 2.81A2.987 2.987 0 0056 37a2.942 2.942 0 00-1.47.4A2.983 2.983 0 0052 36a2.942 2.942 0 00-1.47.4A2.957 2.957 0 0047 35.18v-2.91l.18.14a1 1 0 001.31-.09l2.83-2.83a1 1 0 00.09-1.31l-1.63-2.17a10.69 10.69 0 00.68-1.64l2.68-.38A1 1 0 0054 23v-4a1 1 0 00-.86-.99l-2.68-.38a10.69 10.69 0 00-.68-1.64l1.63-2.17a1 1 0 00-.09-1.31l-2.83-2.83a1 1 0 00-1.31-.09l-2.17 1.63a10.69 10.69 0 00-1.64-.68l-.38-2.68A1 1 0 0042 7h-4a1 1 0 00-.99.86l-.38 2.68a10.69 10.69 0 00-1.64.68l-2.17-1.63a1 1 0 00-1.31.09l-2.83 2.83a1 1 0 00-.09 1.31l1.63 2.17a10.69 10.69 0 00-.68 1.64l-2.68.38A1 1 0 0026 19v4a1 1 0 00.86.99l2.68.38a10.69 10.69 0 00.68 1.64l-1.63 2.17a1 1 0 00.09 1.31l2.83 2.83a1 1 0 001.31.09l2.17-1.63a10.69 10.69 0 001.64.68l.38 2.68A1 1 0 0038 35h3v2.18a2.937 2.937 0 00-3.22.82H20v-5.61l1.03-3.84A2.97 2.97 0 0020 25.41V4h37a3.009 3.009 0 013 3z"/><path d="M14 24a3 3 0 10-3-3 3 3 0 003 3zm0-4a1 1 0 11-1 1 1 1 0 011-1z"/></svg><svg viewBox="0 0 512 512" id="technical" xmlns="http://www.w3.org/2000/svg"><path d="M90.1 395.9c-7.2 0-14.1 1.8-20.2 5.1C37.7 359.8 20 308.5 20 256 20 125.9 125.9 20 256 20c15.8 0 31.6 1.6 47 4.7 5.4 1.1 10.7-2.4 11.8-7.8S312.4 6.2 307 5.1C290.3 1.7 273.1 0 256 0 187.6 0 123.3 26.6 75 75S0 187.6 0 256c0 57.5 19.5 113.7 55.1 158.7-4.6 6.8-7 14.9-7 23.3 0 11.2 4.4 21.8 12.3 29.7 7.9 7.9 18.5 12.3 29.7 12.3s21.8-4.4 29.7-12.3c7.9-7.9 12.3-18.5 12.3-29.7s-4.4-21.8-12.3-29.7c-8-8-18.5-12.4-29.7-12.4zm15.5 57.6c-4.2 4.2-9.7 6.4-15.6 6.4s-11.4-2.3-15.6-6.4-6.4-9.7-6.4-15.6 2.3-11.4 6.4-15.6c4.2-4.2 9.7-6.4 15.6-6.4s11.4 2.3 15.6 6.4c4.2 4.2 6.4 9.7 6.4 15.6.1 5.9-2.2 11.4-6.4 15.6zM456.9 97.3c10.9-16.3 9.1-38.6-5.3-53-7.9-7.9-18.5-12.3-29.7-12.3s-21.8 4.4-29.7 12.3c-7.9 7.9-12.3 18.5-12.3 29.7s4.4 21.8 12.3 29.7 18.5 12.3 29.7 12.3c7.2 0 14.1-1.8 20.2-5.1C474.3 152.2 492 203.5 492 256c0 130.1-105.9 236-236 236-15.7 0-31.3-1.5-46.6-4.6-5.4-1.1-10.7 2.4-11.8 7.8-1.1 5.4 2.4 10.7 7.8 11.8 16.5 3.3 33.5 5 50.5 5 68.4 0 132.7-26.6 181-75s75-112.6 75-181c.1-57.5-19.4-113.7-55-158.7zm-50.5-7.7c-4.2-4.2-6.4-9.7-6.4-15.6s2.3-11.4 6.4-15.6c4.2-4.2 9.7-6.4 15.6-6.4s11.4 2.3 15.6 6.4c8.6 8.6 8.6 22.5 0 31.1-4.2 4.2-9.7 6.4-15.6 6.4-5.9.2-11.5-2.1-15.6-6.3z"/><path d="M214.7 428c0 5.5 4.5 10 10 10h62.5c5.5 0 10-4.5 10-10v-19.4c13.1-3.5 25.7-8.8 37.5-15.6l13.7 13.7c1.9 1.9 4.4 2.9 7.1 2.9 2.6 0 5.2-1.1 7.1-2.9l44.2-44.2c3.9-3.9 3.9-10.2 0-14.1l-13.7-13.7c6.8-11.8 12-24.4 15.6-37.5H428c5.5 0 10-4.5 10-10v-62.5c0-5.5-4.5-10-10-10h-19.3c-3.5-13.1-8.7-25.7-15.6-37.5l13.6-13.6c1.9-1.9 2.9-4.4 2.9-7.1 0-2.7-1.1-5.2-2.9-7.1l-44.2-44.2c-3.9-3.9-10.2-3.9-14.1 0l-13.6 13.6c-11.8-6.8-24.4-12-37.5-15.6V84c0-5.5-4.5-10-10-10h-62.5c-5.5 0-10 4.5-10 10v19.2c-13.1 3.5-25.7 8.7-37.5 15.6l-13.6-13.6c-3.9-3.9-10.2-3.9-14.1 0l-44.2 44.2c-1.9 1.9-2.9 4.4-2.9 7.1s1.1 5.2 2.9 7.1l13.6 13.6c-6.8 11.8-12 24.4-15.6 37.5H84c-5.5 0-10 4.5-10 10v62.5c0 2.7 1.1 5.2 2.9 7.1s4.4 2.9 7.1 2.9h19.3c3.5 13.1 8.8 25.7 15.6 37.5l-13.7 13.7c-3.9 3.9-3.9 10.2 0 14.1l44.2 44.2c1.9 1.9 4.4 2.9 7.1 2.9 2.7 0 5.2-1.1 7.1-2.9l13.7-13.7c11.8 6.8 24.4 12 37.5 15.6V428zm-33.6-56c-4-2.6-9.2-2-12.5 1.3l-12.2 12.2-30.1-30.1 12.2-12.2c3.3-3.3 3.9-8.5 1.3-12.5-9.1-14-15.4-29.4-18.9-45.7-1-4.6-5.1-7.9-9.8-7.9H94v-42.5h17.2c4.7 0 8.8-3.3 9.8-7.9 3.5-16.3 9.9-31.7 18.9-45.7 2.6-4 2-9.2-1.3-12.5l-12.1-12.1 30.1-30.1 12.1 12.1c3.3 3.3 8.5 3.9 12.5 1.3 14-9.1 29.4-15.4 45.7-18.9 4.6-1 7.9-5.1 7.9-9.8V94h42.5v17.1c0 4.7 3.3 8.8 7.9 9.8 16.3 3.5 31.7 9.9 45.7 18.9 4 2.6 9.2 2 12.5-1.3l12.1-12.1 30.1 30.1-12.1 12.1c-3.3 3.3-3.9 8.5-1.3 12.5 9.1 14 15.4 29.4 18.9 45.7 1 4.6 5.1 7.9 9.8 7.9H418v42.5h-17.2c-4.7 0-8.8 3.3-9.8 7.9-3.5 16.3-9.9 31.7-18.9 45.7-2.6 4-2 9.2 1.3 12.5l12.2 12.2-30.1 30.1-12.2-12.2c-3.3-3.3-8.5-3.9-12.5-1.3-14 9.1-29.4 15.4-45.7 18.9-4.6 1-7.9 5.1-7.9 9.8V418h-42.5v-17.3c0-4.7-3.3-8.8-7.9-9.8-16.3-3.4-31.6-9.8-45.7-18.9z"/><path d="M338.6 256c0-45.6-37.1-82.6-82.6-82.6s-82.6 37.1-82.6 82.6 37.1 82.6 82.6 82.6 82.6-37 82.6-82.6zm-145.2 0c0-34.5 28.1-62.6 62.6-62.6s62.6 28.1 62.6 62.6-28.1 62.6-62.6 62.6-62.6-28.1-62.6-62.6zM348.1 37.8c2.6 0 5.2-1.1 7.1-2.9 1.9-1.9 2.9-4.4 2.9-7.1 0-2.6-1.1-5.2-2.9-7.1-1.9-1.9-4.4-2.9-7.1-2.9-2.6 0-5.2 1.1-7.1 2.9-1.9 1.9-2.9 4.4-2.9 7.1 0 2.6 1.1 5.2 2.9 7.1 1.9 1.9 4.4 2.9 7.1 2.9zM164.4 474.4c-2.6 0-5.2 1.1-7.1 2.9s-2.9 4.4-2.9 7.1c0 2.6 1.1 5.2 2.9 7.1s4.4 2.9 7.1 2.9 5.2-1.1 7.1-2.9 2.9-4.4 2.9-7.1-1.1-5.2-2.9-7.1-4.5-2.9-7.1-2.9z"/></svg><svg viewBox="0 0 512.001 512.001" id="telephone" xmlns="http://www.w3.org/2000/svg"><path d="M498.808 377.784l-63.633-63.647c-16.978-16.978-46.641-17.007-63.647 0l-10.611 10.611 127.284 127.277 10.607-10.607c17.619-17.62 17.56-46.104 0-63.634zM339.116 345.37c-13.39 10.373-32.492 9.959-44.727-2.303L168.572 217.163c-12.263-12.263-12.676-31.379-2.303-44.736L39.278 45.443c-54.631 63.68-52.495 159.633 7.8 219.928l199.103 199.19c57.86 57.858 152.635 65.532 219.932 7.797L339.116 345.37zM197.503 76.391L133.87 12.744c-16.978-16.978-46.641-17.007-63.647 0L59.612 23.355l127.284 127.277 10.607-10.608c17.618-17.618 17.56-46.102 0-63.633z"/></svg><svg viewBox="0 0 512 512" id="twitter" xmlns="http://www.w3.org/2000/svg"><path d="M512 97.248c-19.04 8.352-39.328 13.888-60.48 16.576 21.76-12.992 38.368-33.408 46.176-58.016-20.288 12.096-42.688 20.64-66.56 25.408C411.872 60.704 384.416 48 354.464 48c-58.112 0-104.896 47.168-104.896 104.992 0 8.32.704 16.32 2.432 23.936-87.264-4.256-164.48-46.08-216.352-109.792-9.056 15.712-14.368 33.696-14.368 53.056 0 36.352 18.72 68.576 46.624 87.232-16.864-.32-33.408-5.216-47.424-12.928v1.152c0 51.008 36.384 93.376 84.096 103.136-8.544 2.336-17.856 3.456-27.52 3.456-6.72 0-13.504-.384-19.872-1.792 13.6 41.568 52.192 72.128 98.08 73.12-35.712 27.936-81.056 44.768-130.144 44.768-8.608 0-16.864-.384-25.12-1.44C46.496 446.88 101.6 464 161.024 464c193.152 0 298.752-160 298.752-298.688 0-4.64-.16-9.12-.384-13.568 20.832-14.784 38.336-33.248 52.608-54.496z"/></svg><svg viewBox="0 0 512 512" id="website" xmlns="http://www.w3.org/2000/svg"><path d="M477.858 8.533H34.142C15.317 8.533 0 23.851 0 42.675v281.591a8.536 8.536 0 008.533 8.533h494.933a8.536 8.536 0 008.533-8.533V42.675C512 23.851 496.683 8.533 477.858 8.533zm17.075 307.2H17.067V42.675c0-9.421 7.663-17.075 17.075-17.075h443.716c9.412 0 17.075 7.654 17.075 17.075v273.058z"/><path d="M503.467 315.733H8.533A8.536 8.536 0 000 324.266v42.658c0 18.825 15.317 34.142 34.142 34.142h443.716c18.825 0 34.142-15.317 34.142-34.142v-42.658a8.536 8.536 0 00-8.533-8.533zm-8.534 51.192c0 9.421-7.663 17.075-17.075 17.075H34.142c-9.412 0-17.075-7.654-17.075-17.075V332.8h477.867v34.125z"/><path d="M281.6 349.867h-51.2c-4.71 0-8.533 3.823-8.533 8.533s3.823 8.533 8.533 8.533h51.2c4.71 0 8.533-3.823 8.533-8.533s-3.823-8.533-8.533-8.533zM469.333 42.667H42.667a8.536 8.536 0 00-8.533 8.533v273.067a8.536 8.536 0 008.533 8.533h426.667a8.536 8.536 0 008.533-8.533V51.2c0-4.71-3.823-8.533-8.534-8.533zM460.8 315.733H51.2v-256h409.6v256zM366.933 452.267H145.067c-14.114 0-25.6 11.486-25.6 25.6s11.486 25.6 25.6 25.6h221.867c14.114 0 25.6-11.486 25.6-25.6s-11.487-25.6-25.601-25.6zm0 34.133H145.067c-4.71 0-8.533-3.831-8.533-8.533s3.823-8.533 8.533-8.533h221.867c4.71 0 8.533 3.831 8.533 8.533s-3.823 8.533-8.534 8.533z"/><path d="M349.867 452.267c-28.314 0-42.667-20.096-42.667-59.733a8.536 8.536 0 00-8.533-8.533h-85.333a8.536 8.536 0 00-8.533 8.533c0 39.637-14.353 59.733-42.667 59.733a8.536 8.536 0 00-8.533 8.533 8.536 8.536 0 008.533 8.533h187.733a8.536 8.536 0 008.533-8.533 8.536 8.536 0 00-8.533-8.533zm-146.168 0c10.505-11.639 16.691-28.971 17.937-51.2h68.736c1.237 22.229 7.424 39.561 17.937 51.2h-104.61zM407.757 259.959l-20.599-20.599 11.46-11.46a8.542 8.542 0 002.244-8.124 8.543 8.543 0 00-5.82-6.084l-85.333-25.6a8.52 8.52 0 00-8.482 2.142 8.508 8.508 0 00-2.142 8.482l25.6 85.333a8.525 8.525 0 006.084 5.828c2.901.717 5.999-.12 8.124-2.244l12.066-12.075 20.599 20.608c1.596 1.604 3.772 2.5 6.033 2.5s4.437-.896 6.033-2.5l24.132-24.141a8.524 8.524 0 00.001-12.066zm-30.166 18.108l-18.756-18.765a11.1 11.1 0 00-7.876-3.26 11.13 11.13 0 00-7.876 3.251l-6.161 6.161-16.939-56.465 56.465 16.939-6.605 6.605a9.61 9.61 0 00-2.816 6.827 9.568 9.568 0 002.833 6.835l19.797 19.797-12.066 12.075zM358.4 76.8H119.467a8.536 8.536 0 00-8.533 8.533V128a8.536 8.536 0 008.533 8.533H358.4a8.536 8.536 0 008.533-8.533V85.333A8.536 8.536 0 00358.4 76.8zm-8.533 42.667H128v-25.6h221.867v25.6zM221.867 170.667H153.6a8.536 8.536 0 00-8.533 8.533v34.133a8.536 8.536 0 008.533 8.533h68.267a8.536 8.536 0 008.533-8.533V179.2a8.536 8.536 0 00-8.533-8.533zm-8.534 34.133h-51.2v-17.067h51.2V204.8z"/><path d="M358.4 76.8H119.467a8.536 8.536 0 00-8.533 8.533v162.133a8.536 8.536 0 008.533 8.533h203.145a8.5 8.5 0 006.844-3.439 8.533 8.533 0 001.331-7.552l-10.803-36.019 35.968 10.795a8.51 8.51 0 007.543-1.331 8.512 8.512 0 003.439-6.844V85.333c-.001-4.71-3.824-8.533-8.534-8.533zm-8.533 123.341L309.7 188.092a8.52 8.52 0 00-8.482 2.142 8.524 8.524 0 00-2.142 8.491l12.066 40.209H128V93.867h221.867v106.274z"/></svg><svg viewBox="0 0 512 512" id="workflow" xmlns="http://www.w3.org/2000/svg"><path d="M494.9 0H358.4c-9.4 0-17.1 7.6-17.1 17.1v85.3c0 9.4 7.6 17.1 17.1 17.1h102.4v277.3c0 54.2-43.9 98.1-98.1 98.1s-98.1-43.9-98.1-98.1V375c62.5-4.4 111-56.4 111-119s-48.5-114.7-111-119v-21.8C264.5 51.6 213 0 149.3 0S34.1 51.6 34.1 115.2v312.3C12.7 431.9-2 451.8.2 473.6 2.4 495.4 20.8 512 42.7 512s40.2-16.6 42.5-38.4c2.2-21.8-12.5-41.7-33.9-46.1V115.2c0-54.2 43.9-98.1 98.1-98.1 54.2 0 98.1 43.9 98.1 98.1V137c-62.5 4.4-111 56.4-111 119s48.5 114.7 111 119v21.8c0 63.6 51.6 115.2 115.2 115.2s115.2-51.6 115.2-115.2V119.5H495c9.4 0 17.1-7.6 17.1-17.1V17.1C512 7.6 504.4 0 494.9 0zM60.8 451.2c4.8 4.8 7.5 11.3 7.5 18.1 0 14.1-11.5 25.6-25.6 25.6s-25.6-11.5-25.6-25.6 11.5-25.6 25.6-25.6c6.8 0 13.3 2.7 18.1 7.5zM153.6 256c0-56.6 45.8-102.4 102.4-102.4S358.4 199.4 358.4 256 312.6 358.4 256 358.4c-56.5-.1-102.3-45.9-102.4-102.4zm221.9-153.6h-17.1V17.1h17.1v85.3zm119.4 0H392.5V17.1h102.4v85.3z"/><path d="M418.1 51.2h51.2c4.7 0 8.5-3.8 8.5-8.5s-3.8-8.5-8.5-8.5h-51.2c-4.7 0-8.5 3.8-8.5 8.5s3.8 8.5 8.5 8.5zM418.1 85.3h17.1c4.7 0 8.5-3.8 8.5-8.5s-3.8-8.5-8.5-8.5h-17.1c-4.7 0-8.5 3.8-8.5 8.5s3.8 8.5 8.5 8.5z"/><path id="sXMLID_397_" d="M310 194.8L267 237c-3.6-1.7-7.6-2.7-11.9-2.7-4.3 0-8.3 1-11.9 2.7l-19.3-18.9c-3.4-3.3-8.9-3.3-12.3 0-3.4 3.3-3.4 8.7 0 12l19.3 18.9c-1.8 3.5-2.8 7.5-2.8 11.7 0 14.6 12.1 26.5 27 26.5s27-11.9 27-26.5c0-4.2-1-8.2-2.8-11.7l41.8-40.9 1.3-1.2c3.4-3.3 3.4-8.7 0-12-3.6-3.4-9.1-3.4-12.4-.1zm-55 75.3c-5.3 0-9.6-4.2-9.6-9.4s4.3-9.4 9.6-9.4 9.6 4.2 9.6 9.4-4.3 9.4-9.6 9.4z"/></svg></svg>