<?xml version="1.0" encoding="utf-8"?>
<!-- Generator: Adobe Illustrator 19.2.1, SVG Export Plug-In . SVG Version: 6.00 Build 0)  -->
<svg version="1.1" id="layer" xmlns="http://www.w3.org/2000/svg" xmlns:xlink="http://www.w3.org/1999/xlink" x="0px" y="0px"
	 viewBox="0 0 652 652" style="enable-background:new 0 0 652 652;" xml:space="preserve">
<path d="M44.2,308.6c11.3,0,19.8,6.3,19.6,13c-0.2,11.3-10.5,14.1-23.4,14.1c-3.7,0-5.9,0-9.5-0.7v-26.4
	C31,308.6,44.2,308.6,44.2,308.6z M41.2,337.9c17.1,0,31-7.3,30.2-16.6c-0.7-8.8-11.5-14.9-25.4-14.9H20.9c0.2,0,1.7,0.5,2.4,1.2
	c0.5,0.5,0.7,0.8,0.7,1.4v26.4c0,0.5-0.3,0.8-0.7,1.2c-0.7,0.7-2.7,1.2-2.9,1.2L41.2,337.9z"/>
<path d="M106.1,326.1H89l8.5-12.5C97.4,313.5,106.1,326.1,106.1,326.1z M84.6,337.9c-0.2,0-2-0.3-2.4-1c-0.3-0.5,0-1,0.3-1.7
	l4.9-7.1h19.8l4.4,6.4c0.5,0.8,1.2,1.4,0.7,2.2c-0.5,0.7-2.5,1.2-2.5,1.2h14.7c-0.2,0-2.4-0.5-3.4-1.2c-0.8-0.5-1.2-1-1.7-1.7
	l-20.3-29.5L78.6,335c-0.5,0.7-0.8,1.2-1.9,1.9c-0.7,0.3-2.2,1-2.2,1S84.6,337.9,84.6,337.9z"/>
<path d="M125,309.3c-0.5-0.7-0.8-1.2-1.7-1.7c-0.8-0.5-2.5-1.2-2.7-1.2h13.6c0,0-1.5,0.5-1.9,1c-0.5,0.5-0.5,1-0.2,1.7l14.4,20.7
	l13.9-21.3c0.3-0.3,0.3-0.8,0.2-1.2c-0.3-0.5-1.7-0.8-1.9-0.8h9.7c-0.8,0.2-1.4,0.3-1.9,0.8c-0.8,0.5-1.4,1-1.9,1.7l-19.6,29
	L125,309.3L125,309.3z"/>
<path d="M189.1,335.5c0,0.5,0.3,1,1,1.4c0.5,0.5,1.9,0.8,1.9,0.8h-12.4c0.2,0,1.5-0.5,2-1.2c0.3-0.3,0.7-0.7,0.7-1.2v-26.6
	c0-0.5-0.2-0.8-0.7-1.2c-0.5-0.5-1.9-1-2-1H192c0,0-1.4,0.5-1.9,0.8c-0.5,0.5-1,0.8-1,1.4L189.1,335.5L189.1,335.5z"/>
<path d="M231.3,308.6c11.3,0,19.8,6.3,19.6,13c-0.2,11.3-10.5,14.1-23.4,14.1c-3.7,0-5.9,0-9.5-0.7v-26.4H231.3L231.3,308.6z
	 M228.2,337.9c17.1,0,31-7.3,30.2-16.6c-0.7-8.8-11.5-14.9-25.4-14.9h-25.1c0.2,0,1.7,0.5,2.4,1.2c0.5,0.5,0.7,0.8,0.7,1.4v26.4
	c0,0.5-0.3,0.8-0.7,1.2c-0.7,0.7-2.7,1.2-2.9,1.2L228.2,337.9z"/>
<path d="M316.1,335.4c0,0.7,0.2,1.4,0.7,1.7c0.7,0.5,2.7,1,2.7,1h-14.2c0.2,0,1.9-0.5,2.5-1c0.7-0.5,1-0.8,1-1.5v-13.7l-13-12.4
	c-0.7-0.7-1.4-1.2-2.2-1.7c-1.2-0.7-3.4-1.4-3.6-1.4h15.2c-0.2,0-2.2,0.5-2.5,1.2s0.3,1.4,1,2l10.8,10.3l8.6-9.8
	c0.7-0.8,1.5-1.9,1.5-2.4c-0.2-0.7-1-1-2-1.2h10.3c-1.4,0.2-2,0.5-3,1.2c-0.8,0.5-1.2,1-1.9,1.7L316.3,322v13.4H316.1z"/>
<path d="M381.5,308.8c0-0.7-0.2-1-0.7-1.5c-0.5-0.5-1-0.7-2-0.8h9.7c-0.8,0.2-1.2,0.3-1.9,0.7c-0.3,0.2-1,0.7-1,1.9v17.8
	c0,1,0.5,10.8-18.6,11c-14.9,0.2-19.6-4.9-19.6-11.2v-18c0-0.5-0.2-0.8-0.5-1.2c-0.5-0.5-1.9-1-2-1h12.4c0,0-1.4,0.5-1.9,0.8
	c-0.5,0.5-0.7,0.8-0.7,1.4v19.3c0,4.2,4.1,8,13.2,7.8c10.2-0.2,13.7-3.7,13.7-8.1L381.5,308.8L381.5,308.8z"/>
<path d="M417.6,321c-0.7,0.2-6.6,0-6.8,0v-13h4.6C425,308.1,436.9,316.4,417.6,321L417.6,321z M410.8,323h4.4c1.2,0,2.5,0.2,3.9,0.7
	c0.8,0.3,1.4,0.7,1.9,1.2l12,11.3c0.3,0.5,0.8,0.7,1.5,1c0.8,0.3,1.5,0.7,2.5,0.7h9.1c-1.5-0.3-2.4-0.5-3.7-1
	c-1.7-0.5-6.4-4.6-9.1-7.6c-4.4-4.9-9.7-7.3-9.8-7.5c0.5,0,11-1.7,10.7-7.8c-0.2-5.6-9.5-7.8-15.8-7.8h-16.9c0.2,0,1.5,0.7,2,1.2
	c0.3,0.3,0.7,0.7,0.7,1.2v26.8c0,0.5-0.3,0.8-0.7,1.2c-0.5,0.5-1.9,1.2-2,1.2h12.4c0,0-1.4-0.5-1.9-1c-0.5-0.5-1-0.8-1-1.5V323
	H410.8L410.8,323z"/>
<path d="M498.2,311.8l-18.3,26.9l-19-26.9v24.4c0,0.3,0.3,0.7,0.7,1c0.3,0.3,1,0.7,1.7,0.8H455c0.7-0.2,1.2-0.3,1.7-0.8
	c0.3-0.3,0.7-0.5,0.7-1v-27.8c0-0.5-0.2-0.7-0.5-1.2c-0.3-0.3-0.8-0.5-1.5-0.7h9.8l16.4,24.6l16.1-24.6h9.7c0,0-1.4,0.5-1.9,0.8
	c-0.5,0.5-0.5,0.8-0.5,1.4v26.9c0,0.5,0.3,1,1,1.4c0.5,0.3,2,0.7,2,0.7h-12.4c0.2,0,1.5-0.3,2-0.8c0.3-0.3,0.5-0.7,0.5-1.2
	L498.2,311.8L498.2,311.8z"/>
<path d="M547.4,326.1h-17.1l8.5-12.5L547.4,326.1z M526,337.9c-0.2,0-2-0.3-2.4-1c-0.3-0.5,0-1,0.3-1.7l4.9-7.1h20l4.4,6.4
	c0.5,0.8,1.2,1.4,0.7,2.2c-0.5,0.7-2.5,1.2-2.5,1.2h14.7c-0.2,0-2.4-0.5-3.4-1.2c-0.8-0.5-1.2-1-1.7-1.7l-20.3-29.5L519.9,335
	c-0.5,0.7-0.8,1.2-1.9,1.9c-0.7,0.5-2.2,1-2.2,1H526L526,337.9z"/>
<path d="M579.2,311.3v24.9c0,0.3,0.3,0.7,0.7,1c0.5,0.3,1.2,0.7,2,0.8h-8.6c0.8,0,1.2-0.3,1.9-0.7c0.3-0.2,0.5-0.7,0.5-1v-27.1
	c0-0.8-0.7-1-1.4-1.5c-0.8-0.5-2.7-1-2.9-1h10.7l31.5,23v-21.3c0-0.3-0.3-0.7-0.7-1c-0.5-0.3-1-0.7-1.7-0.8h9.1
	c-0.7,0.2-1.2,0.3-1.7,0.8c-0.5,0.3-1,0.7-1,1v30.5L579.2,311.3L579.2,311.3z"/>
</svg>
