<?xml version="1.0"?>
<svg fill="#0099ff" xmlns="http://www.w3.org/2000/svg" viewBox="0 0 64 64" width="512" height="512"><g id="Smartphone-Tablet-Hand-Control-Setting"><path d="M57,2H13A5,5,0,0,0,8,7V18.08A7,7,0,0,0,2,25V36.53a2.971,2.971,0,0,0,.32,1.34L3.9,41.03a.947.947,0,0,1,.1.44V45a1,1,0,0,0-1,1v6a1,1,0,0,0,1,1v8a1,1,0,0,0,1,1H15a1,1,0,0,0,1-1V53a1,1,0,0,0,1-1V46a.985.985,0,0,0-.75-.95,7.118,7.118,0,0,1,.48-1.29l1.54-3.05c.11-.23.21-.47.3-.71H37V50a.967.967,0,0,0,.17.55L41,56.3V61a1,1,0,0,0,1,1H55a1,1,0,0,0,1-1V56.24l2.89-5.79A1,1,0,0,0,59,50V40a2.713,2.713,0,0,0-.04-.41A5,5,0,0,0,62,35V7A5,5,0,0,0,57,2ZM10,7a3.009,3.009,0,0,1,3-3h5V24.77a2.885,2.885,0,0,0-1.36.39,2.978,2.978,0,0,0-1.4,1.82l-1.16,4.3a.982.982,0,0,1-.97.73.961.961,0,0,1-.82-.47L10,27.72Zm4,53H6V53h8Zm1-9H5V47H15Zm4.1-22.99-1.87,6.98a7.343,7.343,0,0,0-.23,1.8v.79a5.177,5.177,0,0,1-.52,2.24l-1.53,3.04A8.916,8.916,0,0,0,14.2,45H6V41.47a2.971,2.971,0,0,0-.32-1.34L4.1,36.97a.947.947,0,0,1-.1-.44V25a5.009,5.009,0,0,1,4-4.9V28a1,1,0,0,0,.14.51l2.43,4.05a2.99,2.99,0,0,0,5.45-.76l1.16-4.31a.955.955,0,0,1,.46-.6.969.969,0,0,1,.76-.1.985.985,0,0,1,.74.96A.783.783,0,0,1,19.1,28.01ZM57,49.76l-2.89,5.79A1,1,0,0,0,54,56v4H43V56a.967.967,0,0,0-.17-.55L39,49.7V40a1,1,0,0,1,2,0v6h2V29a1,1,0,0,1,2,0V42h2V38a1,1,0,0,1,2,0v4h2V39a1,1,0,0,1,2,0v3h2V40a1,1,0,0,1,2,0ZM32.27,25.58a8.6,8.6,0,0,1-.98-2.36,1.008,1.008,0,0,0-.83-.74L28,22.13V19.87l2.46-.35a1.008,1.008,0,0,0,.83-.74,8.6,8.6,0,0,1,.98-2.36,1,1,0,0,0-.06-1.11l-1.5-2,1.6-1.6,2,1.5a.981.981,0,0,0,1.11.06,8.6,8.6,0,0,1,2.36-.98,1.008,1.008,0,0,0,.74-.83L38.87,9h2.26l.35,2.46a1.008,1.008,0,0,0,.74.83,8.6,8.6,0,0,1,2.36.98,1,1,0,0,0,1.11-.06l2-1.5,1.6,1.6-1.5,2a1,1,0,0,0-.06,1.11,8.6,8.6,0,0,1,.98,2.36,1.008,1.008,0,0,0,.83.74l2.46.35v2.26l-2.46.35a1.008,1.008,0,0,0-.83.74,8.6,8.6,0,0,1-.98,2.36,1,1,0,0,0,.06,1.11l1.5,2-1.6,1.6L47,29.77V29a3.009,3.009,0,0,0-3-3,2.946,2.946,0,0,0-.99.18,5.76,5.76,0,1,0-.73.37A2.984,2.984,0,0,0,41,29v4H38.87l-.35-2.46a1.008,1.008,0,0,0-.74-.83,8.6,8.6,0,0,1-2.36-.98.981.981,0,0,0-1.11.06l-2,1.5-1.6-1.6,1.5-2A1,1,0,0,0,32.27,25.58ZM40,25a4,4,0,1,1,4-4A4,4,0,0,1,40,25ZM60,35a2.981,2.981,0,0,1-1.96,2.81A2.987,2.987,0,0,0,56,37a2.942,2.942,0,0,0-1.47.4A2.983,2.983,0,0,0,52,36a2.942,2.942,0,0,0-1.47.4A2.957,2.957,0,0,0,47,35.18V32.27l.18.14a1,1,0,0,0,1.31-.09l2.83-2.83a1,1,0,0,0,.09-1.31l-1.63-2.17a10.69,10.69,0,0,0,.68-1.64l2.68-.38A1,1,0,0,0,54,23V19a1,1,0,0,0-.86-.99l-2.68-.38a10.69,10.69,0,0,0-.68-1.64l1.63-2.17a1,1,0,0,0-.09-1.31L48.49,9.68a1,1,0,0,0-1.31-.09l-2.17,1.63a10.69,10.69,0,0,0-1.64-.68l-.38-2.68A1,1,0,0,0,42,7H38a1,1,0,0,0-.99.86l-.38,2.68a10.69,10.69,0,0,0-1.64.68L32.82,9.59a1,1,0,0,0-1.31.09l-2.83,2.83a1,1,0,0,0-.09,1.31l1.63,2.17a10.69,10.69,0,0,0-.68,1.64l-2.68.38A1,1,0,0,0,26,19v4a1,1,0,0,0,.86.99l2.68.38a10.69,10.69,0,0,0,.68,1.64l-1.63,2.17a1,1,0,0,0,.09,1.31l2.83,2.83a1,1,0,0,0,1.31.09l2.17-1.63a10.69,10.69,0,0,0,1.64.68l.38,2.68A1,1,0,0,0,38,35h3v2.18a2.937,2.937,0,0,0-3.22.82H20V32.39l1.03-3.84A2.97,2.97,0,0,0,20,25.41V4H57a3.009,3.009,0,0,1,3,3Z"/><path d="M14,24a3,3,0,1,0-3-3A3,3,0,0,0,14,24Zm0-4a1,1,0,1,1-1,1A1,1,0,0,1,14,20Z"/></g></svg>
