
<svg version="1.1" xmlns="http://www.w3.org/2000/svg" xmlns:xlink="http://www.w3.org/1999/xlink" x="0px" y="0px"
	 viewBox="0 0 512 512" style="enable-background:new 0 0 512 512;" xml:space="preserve">
<style type="text/css">
	.st0{fill:#0099ff;stroke-width:4;stroke-miterlimit:10;}
</style>
    <path class="st0" d="M494.9,0H358.4c-9.4,0-17.1,7.6-17.1,17.1v85.3c0,9.4,7.6,17.1,17.1,17.1h102.4v277.3
        c0,54.2-43.9,98.1-98.1,98.1s-98.1-43.9-98.1-98.1V375c62.5-4.4,111-56.4,111-119s-48.5-114.7-111-119v-21.8
        C264.5,51.6,213,0,149.3,0S34.1,51.6,34.1,115.2v312.3C12.7,431.9-2,451.8,0.2,473.6C2.4,495.4,20.8,512,42.7,512
        s40.2-16.6,42.5-38.4c2.2-21.8-12.5-41.7-33.9-46.1V115.2c0-54.2,43.9-98.1,98.1-98.1c54.2,0,98.1,43.9,98.1,98.1V137
        c-62.5,4.4-111,56.4-111,119s48.5,114.7,111,119v21.8c0,63.6,51.6,115.2,115.2,115.2s115.2-51.6,115.2-115.2V119.5h17.1
        c9.4,0,17.1-7.6,17.1-17.1V17.1C512,7.6,504.4,0,494.9,0z M60.8,451.2c4.8,4.8,7.5,11.3,7.5,18.1c0,14.1-11.5,25.6-25.6,25.6
        s-25.6-11.5-25.6-25.6s11.5-25.6,25.6-25.6C49.5,443.7,56,446.4,60.8,451.2z M153.6,256c0-56.6,45.8-102.4,102.4-102.4
        S358.4,199.4,358.4,256S312.6,358.4,256,358.4C199.5,358.3,153.7,312.5,153.6,256z M375.5,102.4h-17.1V17.1h17.1V102.4z
            M494.9,102.4H392.5V17.1h102.4V102.4z"/>
    <path fill="#0099ff" class="st0" d="M418.1,51.2h51.2c4.7,0,8.5-3.8,8.5-8.5s-3.8-8.5-8.5-8.5h-51.2c-4.7,0-8.5,3.8-8.5,8.5
        S413.4,51.2,418.1,51.2z"/>
    <path fill="#0099ff" class="st0" d="M418.1,85.3h17.1c4.7,0,8.5-3.8,8.5-8.5s-3.8-8.5-8.5-8.5h-17.1c-4.7,0-8.5,3.8-8.5,8.5
        S413.4,85.3,418.1,85.3z"/>
    <path fill="#0099ff" id="XMLID_397_" d="M310,194.8l-43,42.2c-3.6-1.7-7.6-2.7-11.9-2.7c-4.3,0-8.3,1-11.9,2.7l-19.3-18.9
        c-3.4-3.3-8.9-3.3-12.3,0c-3.4,3.3-3.4,8.7,0,12l19.3,18.9c-1.8,3.5-2.8,7.5-2.8,11.7c0,14.6,12.1,26.5,27,26.5
        c14.9,0,27-11.9,27-26.5c0-4.2-1-8.2-2.8-11.7l41.8-40.9l0,0l1.3-1.2c3.4-3.3,3.4-8.7,0-12C318.8,191.5,313.3,191.5,310,194.8z
            M255,270.1c-5.3,0-9.6-4.2-9.6-9.4c0-5.2,4.3-9.4,9.6-9.4s9.6,4.2,9.6,9.4C264.6,265.9,260.3,270.1,255,270.1z"/>
</svg>
